<?xml version="1.0" encoding="UTF-8"?>
<svg width="180" height="180" viewBox="0 0 180 180" fill="none" xmlns="http://www.w3.org/2000/svg">
  <rect width="180" height="180" fill="#F0F0F0"/>
  <path d="M90 60C78.954 60 70 68.954 70 80C70 91.046 78.954 100 90 100C101.046 100 110 91.046 110 80C110 68.954 101.046 60 90 60ZM90 94C82.268 94 76 87.732 76 80C76 72.268 82.268 66 90 66C97.732 66 104 72.268 104 80C104 87.732 97.732 94 90 94Z" fill="#CCCCCC"/>
  <path d="M60 120C60 120 70 100 90 100C110 100 120 120 120 120" stroke="#CCCCCC" stroke-width="6" stroke-linecap="round"/>
  <path d="M40 40L140 140M40 140L140 40" stroke="#CCCCCC" stroke-width="4" stroke-linecap="round"/>
  <text x="90" y="160" font-family="Arial, sans-serif" font-size="14" fill="#999999" text-anchor="middle">Image Not Available</text>
</svg>
